<?xml version="1.0" standalone="no"?>
<!DOCTYPE svg PUBLIC "-//W3C//DTD SVG 20010904//EN"
 "http://www.w3.org/TR/2001/REC-SVG-20010904/DTD/svg10.dtd">
<svg version="1.0" xmlns="http://www.w3.org/2000/svg"
 width="716.000000pt" height="716.000000pt" viewBox="0 0 716.000000 716.000000"
 preserveAspectRatio="xMidYMid meet">
<g transform="translate(0.000000,716.000000) scale(0.100000,-0.100000)"
fill="#000000" stroke="none">
<path d="M2720 5154 c-454 -43 -827 -303 -1029 -717 -120 -247 -171 -497 -171
-841 0 -438 105 -784 317 -1048 l54 -68 -261 0 -260 0 0 1260 0 1260 -200 0
-200 0 0 -1435 0 -1435 958 0 c977 0 1062 3 1219 40 202 48 334 123 505 288
70 67 109 100 113 91 2 -8 18 -70 35 -139 17 -69 36 -142 41 -162 l10 -38 129
0 130 0 0 770 0 770 -635 0 -635 0 0 -165 0 -165 450 0 450 0 0 -42 c-1 -70
-28 -248 -50 -328 -76 -268 -258 -448 -545 -537 -85 -26 -100 -27 -290 -27
-215 -1 -271 8 -400 61 -275 114 -450 390 -511 807 -23 157 -15 509 15 649 50
230 133 396 266 533 175 179 375 264 625 264 133 0 237 -15 345 -51 235 -78
384 -230 455 -466 l22 -73 194 0 194 0 0 24 c0 39 -46 205 -80 286 -66 160
-191 320 -325 415 -130 93 -320 168 -505 199 -95 16 -345 28 -430 20z"/>
<path d="M4240 3615 l0 -1435 200 0 200 0 0 670 0 670 735 0 735 0 0 -670 0
-670 200 0 200 0 0 1435 0 1435 -200 0 -200 0 0 -590 0 -590 -735 0 -735 0 0
590 0 590 -200 0 -200 0 0 -1435z"/>
</g>
</svg>
